<svg enable-background="new 0 0 512 512" height="512" viewBox="0 0 512 512" width="512" xmlns="http://www.w3.org/2000/svg"><circle cx="116.05" cy="112" fill="#f5c346" r="16"/><circle cx="148.05" cy="48" fill="#0f3aaf" r="16"/><circle cx="180.05" cy="176" fill="#0f3aaf" r="16"/><circle cx="212.05" cy="160" fill="#f5c346" r="16"/><path d="m452.052 87.5h-224v-64h224c17.673 0 32 14.327 32 32 0 17.673-14.327 32-32 32z" fill="#b4ebfa" data-original="#B4EBFA"/><path d="m228.05 23.5h16v64h-16z" fill="#83ddf2" data-original="#83DDF2"/><path d="m315.552 64h-87.5v23.5h64z" fill="#83ddf2" data-original="#83DDF2"/><path d="m484.052 55.25c0 8.84-3.58 16.965-9.37 22.755s-13.79 9.495-22.63 9.495h-160l64-64h96c17.67 0 32 14.08 32 31.75z" fill="#f5c346" data-original="#F5C346"/><path d="m452.052 87.5h-160l23.5-23.5h136.5c17.673 0 32-8.5 32-8.5 0 17.673-14.327 32-32 32z" fill="#d69627" data-original="#D69627"/><path d="m196.05 7.5h32v96h-32z" fill="#b4ebfa" data-original="#B4EBFA"/><path d="m212.05 7.5h16v96h-16z" fill="#83ddf2" data-original="#83DDF2"/><path d="m196.05 64h32v39.5h-32z" fill="#83ddf2" data-original="#83DDF2"/><path d="m372.05 56h16v15h-16z" fill="#fff" data-original="#FFFFFF"/><path d="m436.05 40h16v15h-16z" fill="#fff" data-original="#FFFFFF"/><path d="m356.052 504h-320l128-160v-80h64v80z" fill="#b4ebfa" data-original="#B4EBFA"/><path d="m196.052 264v80l-51.2 64h-32l51.2-64v-80z" fill="#83ddf2" data-original="#83DDF2"/><path d="m164.05 264h64v16h-64z" fill="#83ddf2" data-original="#83DDF2"/><path d="m356.052 504h-320l76.8-96h166.4z" fill="#0f3aaf" data-original="#FF5A6E" data-old_color="#0044FF"/><path d="m144.852 408-76.8 96h-32l76.8-96z" fill="#3d00ff" data-original="#D72850" data-old_color="#D72850"/><circle cx="212.05" cy="408" fill="#fff" r="16"/><path d="m132.05 232h128v32h-128z" fill="#b4ebfa" data-original="#B4EBFA"/><path d="m132.05 248h128v16h-128z" fill="#83ddf2" data-original="#83DDF2"/><path d="m132.05 232h64v32h-64z" fill="#83ddf2" data-original="#83DDF2"/><circle cx="156.05" cy="456" fill="#fff" r="24"/><g fill="#0c0b0b"><path d="m116.052 135.5c12.958 0 23.5-10.542 23.5-23.5s-10.542-23.5-23.5-23.5-23.5 10.542-23.5 23.5 10.542 23.5 23.5 23.5zm0-32c4.687 0 8.5 3.813 8.5 8.5s-3.813 8.5-8.5 8.5-8.5-3.813-8.5-8.5 3.813-8.5 8.5-8.5z" data-original="#000000" data-old_color="#231D1B"/><path d="m148.052 71.5c12.958 0 23.5-10.542 23.5-23.5s-10.542-23.5-23.5-23.5-23.5 10.542-23.5 23.5 10.542 23.5 23.5 23.5zm0-32c4.687 0 8.5 3.813 8.5 8.5s-3.813 8.5-8.5 8.5-8.5-3.813-8.5-8.5 3.813-8.5 8.5-8.5z" data-original="#000000" data-old_color="#231D1B"/><path d="m156.552 176c0 12.958 10.542 23.5 23.5 23.5 11.018 0 20.285-7.623 22.814-17.871 2.824 1.204 5.928 1.871 9.186 1.871 12.958 0 23.5-10.542 23.5-23.5s-10.542-23.5-23.5-23.5c-11.018 0-20.285 7.623-22.814 17.871-2.824-1.204-5.928-1.871-9.186-1.871-12.958 0-23.5 10.542-23.5 23.5zm55.5-24.5c4.687 0 8.5 3.813 8.5 8.5s-3.813 8.5-8.5 8.5-8.5-3.813-8.5-8.5 3.813-8.5 8.5-8.5zm-32 16c4.687 0 8.5 3.813 8.5 8.5s-3.813 8.5-8.5 8.5-8.5-3.813-8.5-8.5 3.813-8.5 8.5-8.5z" data-original="#000000" data-old_color="#231D1B"/><path d="m452.052 16h-217v-16h-47v111h47v-80h102.893l-49 49h-28.893v15h192c21.78 0 39.5-17.72 39.5-39.5s-17.719-39.5-39.5-39.5zm-232 80h-17v-81h17zm232-16h-141.893l49-49h92.893c13.51 0 24.5 10.991 24.5 24.5s-10.99 24.5-24.5 24.5z" data-original="#000000" data-old_color="#231D1B"/><path d="m235.052 296h-15v50.631l43.596 54.369h-29.33c-3.138-10-11.93-16-22.266-16s-19.128 6-22.266 16h-49.734v15h49.734c3.138 9 11.93 16 22.266 16s19.128-7 22.266-16h41.33l64.8 81h-288.791l119.395-150.369v-74.631h96v-47h-143v47h32v69.369l-135.604 170.631h351.209l-136.605-170.631zm-23 120.5c-4.687 0-8.5-3.813-8.5-8.5s3.813-8.5 8.5-8.5 8.5 3.813 8.5 8.5-3.813 8.5-8.5 8.5zm-73-159.5v-17h113v17z" data-original="#000000" data-old_color="#231D1B"/><path d="m156.052 487.5c17.369 0 31.5-14.131 31.5-31.5s-14.131-31.5-31.5-31.5-31.5 14.131-31.5 31.5 14.131 31.5 31.5 31.5zm0-48c9.098 0 16.5 7.402 16.5 16.5s-7.402 16.5-16.5 16.5-16.5-7.402-16.5-16.5 7.402-16.5 16.5-16.5z" data-original="#000000" data-old_color="#231D1B"/></g><path d="m244.05 464.5h16v15h-16z" fill="#fff" data-original="#FFFFFF"/><path d="m164.05 368.5h16v15h-16z" fill="#fff" data-original="#FFFFFF"/></svg>